<?xml version="1.0" standalone="no"?>
<!DOCTYPE svg PUBLIC "-//W3C//DTD SVG 20010904//EN"
 "http://www.w3.org/TR/2001/REC-SVG-20010904/DTD/svg10.dtd">
<svg version="1.0" xmlns="http://www.w3.org/2000/svg"
 width="640.000000pt" height="640.000000pt" viewBox="0 0 640.000000 640.000000"
 preserveAspectRatio="xMidYMid meet">
<metadata>
Created by potrace 1.14, written by Peter Selinger 2001-2017
</metadata>
<g transform="translate(0.000000,640.000000) scale(0.100000,-0.100000)"
fill="#000000" stroke="none">
<path d="M0 3200 l0 -3200 3200 0 3200 0 0 3200 0 3200 -3200 0 -3200 0 0
-3200z m4646 1473 c-70 -400 -252 -642 -526 -699 -41 -8 -97 -14 -125 -12
l-50 3 3 -170 c11 -537 -86 -1063 -262 -1420 -140 -285 -311 -466 -547 -580
-145 -70 -262 -96 -454 -102 -176 -6 -275 3 -454 43 -110 25 -349 98 -363 112
-4 4 30 8 75 10 97 4 246 31 337 62 374 126 638 437 775 915 34 120 70 321 85
475 16 162 10 634 -7 651 -18 18 -222 -4 -349 -36 -119 -31 -294 -114 -384
-183 -263 -200 -442 -522 -509 -915 l-17 -98 -32 133 c-57 242 -82 424 -82
613 0 377 109 675 325 889 169 167 423 289 690 330 72 11 273 14 984 15 l893
1 -6 -37z"/>
</g>
</svg>
